FILE "Battlecorps (1993)(Core Design - Time Warner Interactive)(US).img" BINARY
  TRACK 01 MODE1/2352
    INDEX 01 00:00:00
  TRACK 02 AUDIO
    PREGAP 00:02:00
    INDEX 01 08:02:37
  TRACK 03 AUDIO
    INDEX 00 08:10:15
    INDEX 01 08:12:15
  TRACK 04 AUDIO
    INDEX 00 14:34:29
    INDEX 01 14:36:29
  TRACK 05 AUDIO
    INDEX 00 19:34:00
    INDEX 01 19:35:74
  TRACK 06 AUDIO
    INDEX 00 25:03:50
    INDEX 01 25:05:50
  TRACK 07 AUDIO
    INDEX 00 30:20:26
    INDEX 01 30:22:26
  TRACK 08 AUDIO
    INDEX 00 36:55:13
    INDEX 01 36:57:13
  TRACK 09 AUDIO
    INDEX 00 41:06:63
    INDEX 01 41:08:63
  TRACK 10 AUDIO
    INDEX 00 41:38:28
    INDEX 01 41:40:28
  TRACK 11 AUDIO
    INDEX 00 42:02:62
    INDEX 01 42:04:62
  TRACK 12 AUDIO
    INDEX 00 42:32:66
    INDEX 01 42:34:66
  TRACK 13 AUDIO
    INDEX 00 43:03:43
    INDEX 01 43:05:42
  TRACK 14 AUDIO
    INDEX 00 43:33:72
    INDEX 01 43:35:72
  TRACK 15 AUDIO
    INDEX 00 44:01:37
    INDEX 01 44:03:36
  TRACK 16 AUDIO
    INDEX 00 44:31:35
    INDEX 01 44:33:35
  TRACK 17 AUDIO
    INDEX 00 45:06:00
    INDEX 01 45:07:74
  TRACK 18 AUDIO
    INDEX 00 45:29:51
    INDEX 01 45:31:51
  TRACK 19 AUDIO
    INDEX 00 45:53:56
    INDEX 01 45:55:55
  TRACK 20 AUDIO
    INDEX 00 46:14:43
    INDEX 01 46:16:42
  TRACK 21 AUDIO
    INDEX 00 46:43:55
    INDEX 01 46:45:55
  TRACK 22 AUDIO
    INDEX 00 47:04:63
    INDEX 01 47:06:63
  TRACK 23 AUDIO
    INDEX 00 47:30:48
    INDEX 01 47:32:48
  TRACK 24 AUDIO
    INDEX 00 47:52:11
    INDEX 01 47:54:11
  TRACK 25 AUDIO
    INDEX 00 48:17:03
    INDEX 01 48:19:02
  TRACK 26 AUDIO
    INDEX 00 48:40:65
    INDEX 01 48:42:65
  TRACK 27 AUDIO
    INDEX 00 49:05:32
    INDEX 01 49:07:31
  TRACK 28 AUDIO
    INDEX 00 49:28:53
    INDEX 01 49:30:52
  TRACK 29 AUDIO
    INDEX 00 49:50:64
    INDEX 01 49:52:64
  TRACK 30 AUDIO
    INDEX 00 50:20:61
    INDEX 01 50:22:61
  TRACK 31 AUDIO
    INDEX 00 50:38:60
    INDEX 01 50:40:59
  TRACK 32 AUDIO
    INDEX 00 51:01:47
    INDEX 01 51:03:46
  TRACK 33 AUDIO
    INDEX 00 51:19:32
    INDEX 01 51:21:31
  TRACK 34 AUDIO
    INDEX 00 51:41:21
    INDEX 01 51:43:19
  TRACK 35 AUDIO
    INDEX 00 51:59:40
    INDEX 01 52:01:40
  TRACK 36 AUDIO
    INDEX 00 52:25:69
    INDEX 01 52:27:68
  TRACK 37 AUDIO
    INDEX 00 52:48:48
    INDEX 01 52:50:47
  TRACK 38 AUDIO
    INDEX 00 53:13:56
    INDEX 01 53:15:56
  TRACK 39 AUDIO
    INDEX 00 53:35:29
    INDEX 01 53:37:29
  TRACK 40 AUDIO
    INDEX 00 53:56:69
    INDEX 01 53:58:69
  TRACK 41 AUDIO
    INDEX 00 54:18:24
    INDEX 01 54:20:24
  TRACK 42 AUDIO
    INDEX 00 54:42:36
    INDEX 01 54:44:36
  TRACK 43 AUDIO
    INDEX 00 55:03:66
    INDEX 01 55:05:66
  TRACK 44 AUDIO
    INDEX 00 55:23:32
    INDEX 01 55:25:32
  TRACK 45 AUDIO
    INDEX 00 55:42:25
    INDEX 01 55:44:24
  TRACK 46 AUDIO
    INDEX 00 55:57:55
    INDEX 01 55:59:55
  TRACK 47 AUDIO
    INDEX 00 56:20:18
    INDEX 01 56:22:17
  TRACK 48 AUDIO
    INDEX 00 56:39:24
    INDEX 01 56:41:23
  TRACK 49 AUDIO
    INDEX 00 56:53:03
    INDEX 01 56:55:02
  TRACK 50 AUDIO
    INDEX 00 57:05:68
    INDEX 01 57:07:67
